<svg width="791" height="40" viewBox="0 0 791 40" fill="none" xmlns="http://www.w3.org/2000/svg">
<path d="M46.3848 12.5875H50.159V27.75H46.3848V12.5875ZM51.6561 22.025C51.6561 18.275 53.9709 16.0375 57.5438 16.0375C61.1167 16.0375 63.4315 18.275 63.4315 22.025C63.4315 25.775 61.167 28.025 57.5438 28.025C53.9206 28.025 51.6561 25.8375 51.6561 22.025ZM59.6448 22.025C59.6448 19.9625 58.827 18.75 57.5438 18.75C56.2606 18.75 55.4554 20 55.4554 22.025C55.4554 24.05 56.248 25.275 57.5438 25.275C58.8396 25.275 59.6448 24.125 59.6448 22.0375V22.025ZM64.8532 28.4875H68.4764C68.6489 28.8681 68.9403 29.1833 69.3076 29.386C69.6748 29.5886 70.0981 29.6681 70.5144 29.6125C71.9486 29.6125 72.7035 28.8375 72.7035 27.7125V25.6125H72.628C72.3273 26.2561 71.8393 26.7954 71.2271 27.1609C70.615 27.5263 69.9065 27.701 69.1935 27.6625C66.4383 27.6625 64.6141 25.575 64.6141 21.9875C64.6141 18.4 66.3503 16.1375 69.2438 16.1375C69.9793 16.1089 70.7059 16.3042 71.3265 16.6974C71.9471 17.0906 72.432 17.6629 72.7161 18.3375V16.25H76.4902V27.625C76.4902 30.3625 74.0622 32.0625 70.4767 32.0625C67.1428 32.0625 65.067 30.575 64.8532 28.5V28.4875ZM72.7161 22.0125C72.7161 20.1875 71.8732 19.0375 70.5396 19.0375C69.2061 19.0375 68.3883 20.175 68.3883 22.0125C68.3883 23.85 69.1935 24.8875 70.5396 24.8875C71.8857 24.8875 72.7161 23.875 72.7161 22.025V22.0125ZM77.9119 22.0125C77.9119 18.2625 80.2267 16.025 83.7996 16.025C87.3725 16.025 89.6999 18.2625 89.6999 22.0125C89.6999 25.7625 87.4354 28.0125 83.7996 28.0125C80.1638 28.0125 77.9119 25.8375 77.9119 22.025V22.0125ZM85.9006 22.0125C85.9006 19.95 85.0828 18.7375 83.7996 18.7375C82.5164 18.7375 81.7741 20 81.7741 22.0375C81.7741 24.075 82.5667 25.2875 83.8499 25.2875C85.1332 25.2875 85.9006 24.125 85.9006 22.0375V22.0125ZM91.1341 13.525C91.1242 13.1464 91.2277 12.7734 91.4314 12.4533C91.6352 12.1331 91.93 11.8803 92.2785 11.7269C92.6269 11.5734 93.0134 11.5263 93.3889 11.5913C93.7645 11.6564 94.1121 11.8308 94.3877 12.0924C94.6635 12.354 94.8547 12.691 94.9374 13.0607C95.02 13.4305 94.9903 13.8162 94.852 14.1692C94.7137 14.5221 94.473 14.8264 94.1605 15.0433C93.8481 15.2601 93.4778 15.38 93.0967 15.3875C92.8441 15.4048 92.5906 15.3699 92.3522 15.2851C92.1137 15.2004 91.8955 15.0676 91.7112 14.895C91.5269 14.7225 91.3804 14.5139 91.2812 14.2824C91.1818 14.051 91.1317 13.8016 91.1341 13.55V13.525ZM91.1341 16.275H94.9083V27.75H91.1341V16.275ZM108.609 22.0125C108.609 25.7625 106.935 27.9 104.067 27.9C103.332 27.9469 102.599 27.7683 101.969 27.3883C101.339 27.0081 100.842 26.445 100.544 25.775H100.469V31.425H96.6948V16.25H100.469V18.3H100.544C100.828 17.6189 101.316 17.0411 101.942 16.6453C102.567 16.2494 103.301 16.0546 104.042 16.0875C106.935 16.1375 108.659 18.2875 108.659 22.0375L108.609 22.0125ZM104.834 22.0125C104.834 20.1875 103.992 19.025 102.671 19.025C101.35 19.025 100.507 20.2 100.494 22.0125C100.482 23.825 101.35 24.9875 102.671 24.9875C103.992 24.9875 104.834 23.85 104.834 22.0375V22.0125ZM115.088 16.0125C118.22 16.0125 120.12 17.4875 120.208 19.85H116.773C116.773 19.0375 116.094 18.525 115.05 18.525C114.006 18.525 113.54 18.925 113.54 19.5125C113.54 20.1 113.955 20.2875 114.798 20.4625L117.214 20.95C119.516 21.4375 120.497 22.3625 120.497 24.1C120.497 26.475 118.321 28 115.113 28C111.905 28 109.804 26.475 109.64 24.1375H113.276C113.389 24.9875 114.069 25.4875 115.176 25.4875C116.283 25.4875 116.786 25.125 116.786 24.525C116.786 23.925 116.434 23.8 115.528 23.6125L113.352 23.15C111.1 22.6875 109.917 21.5 109.917 19.75C109.942 17.5 111.968 16.0375 115.088 16.0375V16.0125ZM133.091 27.725H129.455V25.5875H129.379C129.179 26.3051 128.739 26.9333 128.13 27.3676C127.521 27.8019 126.781 28.0162 126.033 27.975C125.459 28.0074 124.886 27.9171 124.35 27.7102C123.815 27.5034 123.331 27.1849 122.93 26.776C122.529 26.3672 122.222 25.8776 122.028 25.3405C121.834 24.8034 121.758 24.2311 121.806 23.6625V16.25H125.58V22.8C125.58 24.1625 126.284 24.8875 127.454 24.8875C127.729 24.888 128 24.8304 128.251 24.7182C128.5 24.6061 128.724 24.4421 128.905 24.2374C129.085 24.0325 129.221 23.7916 129.3 23.5309C129.379 23.27 129.403 22.9953 129.367 22.725V16.25H133.141L133.091 27.725ZM134.915 16.25H138.563V18.4625H138.639C138.839 17.7544 139.27 17.1321 139.864 16.6934C140.458 16.2546 141.182 16.0239 141.922 16.0375C142.676 15.9776 143.423 16.2015 144.018 16.6648C144.612 17.128 145.009 17.7965 145.13 18.5375H145.206C145.433 17.7886 145.906 17.1366 146.549 16.684C147.191 16.2314 147.967 16.0039 148.753 16.0375C149.267 16.0204 149.778 16.1108 150.253 16.3028C150.73 16.4946 151.159 16.784 151.515 17.1518C151.871 17.5196 152.145 17.9578 152.32 18.4376C152.494 18.9175 152.565 19.4286 152.528 19.9375V27.75H148.753V20.9375C148.753 19.6875 148.187 19.1125 147.131 19.1125C146.895 19.1105 146.661 19.1588 146.446 19.254C146.231 19.3493 146.039 19.4892 145.883 19.6646C145.727 19.84 145.61 20.0465 145.54 20.2704C145.471 20.4944 145.452 20.7304 145.483 20.9625V27.75H141.897V20.8875C141.897 19.7375 141.331 19.1125 140.299 19.1125C140.061 19.1126 139.825 19.1629 139.609 19.26C139.391 19.3573 139.196 19.4991 139.039 19.6763C138.88 19.8534 138.762 20.0619 138.69 20.288C138.62 20.514 138.597 20.7524 138.626 20.9875V27.75H134.852L134.915 16.25Z" fill="#010032"/>
<path d="M35.8303 13.275C35.19 11.8204 34.3427 10.4649 33.3141 9.24999C31.7938 7.40041 29.8963 5.89173 27.7468 4.82324C25.5973 3.75476 23.2443 3.1507 20.8429 3.05081C18.4415 2.95093 16.0461 3.35748 13.8141 4.24373C11.5823 5.12996 9.5646 6.4758 7.89392 8.19265C6.22324 9.90949 4.93744 11.9584 4.12114 14.2046C3.30484 16.4507 2.97655 18.8433 3.15789 21.2245C3.33924 23.6059 4.02608 25.922 5.17323 28.0205C6.32039 30.1191 7.90184 31.9525 9.81349 33.4C11.0401 34.3474 12.3955 35.1175 13.8393 35.6875C15.8635 36.5117 18.03 36.9362 20.2177 36.9375C24.7334 36.9276 29.0609 35.1391 32.2517 31.9641C35.4424 28.7891 37.236 24.4867 37.2393 20C37.2426 17.6856 36.7629 15.3957 35.8303 13.275ZM20.2051 6.48748C22.1697 6.48728 24.1105 6.9139 25.8915 7.73748C25.4573 7.92394 25.0006 8.05418 24.5328 8.12499C22.9937 8.34635 21.568 9.05633 20.4683 10.149C19.3686 11.2416 18.654 12.6582 18.4312 14.1875C18.3335 15.0451 17.9408 15.843 17.3197 16.4465C16.6986 17.05 15.887 17.422 15.0219 17.5C13.4827 17.7214 12.0569 18.4314 10.9573 19.524C9.85762 20.6166 9.14306 22.0333 8.92027 23.5625C8.84483 24.378 8.49465 25.1444 7.9264 25.7375C6.94592 23.6791 6.50547 21.4076 6.64603 19.1346C6.78658 16.8616 7.50356 14.6609 8.73026 12.7371C9.95695 10.8135 11.6535 9.22938 13.662 8.13229C15.6705 7.0352 17.9257 6.46079 20.2177 6.46248L20.2051 6.48748ZM9.80091 28.75C9.95188 28.6125 10.1028 28.4875 10.2538 28.3375C11.3731 27.2594 12.0915 25.8361 12.2919 24.3C12.3731 23.4365 12.7611 22.63 13.3864 22.025C13.9881 21.4028 14.7979 21.0204 15.6635 20.95C17.2026 20.7286 18.6284 20.0186 19.728 18.926C20.8277 17.8334 21.5423 16.4167 21.7651 14.8875C21.8196 13.9844 22.2096 13.1335 22.8596 12.5C23.4762 11.8898 24.2937 11.5214 25.1619 11.4625C26.5758 11.2692 27.8945 10.6446 28.9361 9.67499C30.122 10.6526 31.1267 11.8286 31.9051 13.15C31.8573 13.2141 31.8024 13.2729 31.7415 13.325C31.1411 13.9527 30.3323 14.3435 29.4644 14.425C27.9237 14.6425 26.4958 15.3512 25.3954 16.4445C24.2951 17.5379 23.5817 18.9566 23.3628 20.4875C23.2741 21.348 22.8888 22.1516 22.2721 22.7621C21.6553 23.3727 20.8451 23.7526 19.9786 23.8375C18.435 24.0571 17.0039 24.7658 15.8979 25.8579C14.7919 26.9501 14.0699 28.3676 13.8393 29.9C13.7716 30.5109 13.5604 31.0975 13.2228 31.6125C11.9321 30.851 10.776 29.884 9.80091 28.75ZM20.2051 33.575C18.9285 33.5764 17.658 33.3996 16.4309 33.05C16.8507 32.2725 17.1236 31.4251 17.2361 30.55C17.3243 29.6914 17.7078 28.8892 18.322 28.279C18.9362 27.6687 19.7435 27.2876 20.6077 27.2C22.1491 26.9811 23.5777 26.2722 24.6799 25.1794C25.782 24.0866 26.4984 22.6685 26.7219 21.1375C26.8101 20.2789 27.1936 19.4767 27.8078 18.8665C28.422 18.2562 29.2293 17.8751 30.0935 17.7875C31.2534 17.6376 32.359 17.2085 33.3141 16.5375C33.8445 18.5349 33.9073 20.6264 33.4978 22.6516C33.0883 24.6769 32.2172 26.5821 30.9516 28.221C29.686 29.8597 28.0594 31.1889 26.1965 32.1061C24.3337 33.0234 22.2842 33.5045 20.2051 33.5125V33.575Z" fill="#010032"/>
<path d="M226.218 7.82349V2.82349H210.418V37.1765H226.218V32.1765C222.981 32.1765 219.877 30.8935 217.589 28.61C215.3 26.3265 214.014 23.2294 214.014 20C214.014 16.7706 215.3 13.6734 217.589 11.3899C219.877 9.10637 222.981 7.82349 226.218 7.82349Z" fill="#010032"/>
<path d="M226.217 7.82349V32.1765C229.453 32.1765 232.558 30.8935 234.846 28.61C237.135 26.3265 238.42 23.2294 238.42 20C238.42 16.7706 237.135 13.6734 234.846 11.3899C232.558 9.10637 229.453 7.82349 226.217 7.82349Z" fill="#010032"/>
<path d="M247.287 10.8824H250.824V27.8824H247.287V10.8824Z" fill="#010032"/>
<path d="M252.805 22.0588C252.805 20.8358 253.169 19.6402 253.851 18.6238C254.533 17.6073 255.502 16.8156 256.635 16.3492C257.768 15.8828 259.014 15.7626 260.216 16.0038C261.418 16.2449 262.521 16.8367 263.385 17.704C264.249 18.5714 264.836 19.6752 265.071 20.8756C265.306 22.0761 265.178 23.3191 264.704 24.4471C264.23 25.5749 263.432 26.5372 262.409 27.2115C261.386 27.886 260.186 28.2422 258.96 28.2353C258.147 28.2416 257.341 28.086 256.589 27.7773C255.837 27.4687 255.154 27.0134 254.581 26.4382C254.008 25.8629 253.556 25.1792 253.251 24.4272C252.946 23.6752 252.794 22.87 252.805 22.0588ZM261.672 22.0588C261.658 21.5315 261.489 21.02 261.185 20.5884C260.881 20.1566 260.457 19.8238 259.964 19.6315C259.472 19.4393 258.934 19.3961 258.417 19.5075C257.9 19.6188 257.428 19.8796 257.059 20.2575C256.69 20.6353 256.441 21.1132 256.343 21.6315C256.245 22.1499 256.302 22.6855 256.507 23.1715C256.713 23.6575 257.057 24.0725 257.498 24.3641C257.938 24.6559 258.455 24.8115 258.984 24.8118C259.344 24.8188 259.701 24.7516 260.034 24.6145C260.367 24.4774 260.667 24.2733 260.918 24.0149C261.168 23.7566 261.362 23.4494 261.487 23.1129C261.613 22.7764 261.668 22.4175 261.648 22.0588H261.672Z" fill="#010032"/>
<path d="M279.111 16.2352V27.3058C279.111 31.2117 276.045 32.8705 272.944 32.8705C271.851 32.96 270.753 32.7432 269.776 32.2444C268.799 31.7455 267.981 30.9845 267.414 30.047L270.398 28.3293C270.639 28.8157 271.024 29.2168 271.5 29.4795C271.976 29.7423 272.521 29.854 273.062 29.7999C273.407 29.8423 273.757 29.8081 274.087 29.6999C274.417 29.5915 274.719 29.4119 274.972 29.1735C275.224 28.9352 275.42 28.6443 275.547 28.3213C275.674 27.9985 275.727 27.6517 275.703 27.3058V26.2352C275.292 26.7332 274.77 27.1285 274.178 27.3899C273.587 27.6513 272.942 27.7715 272.296 27.7411C270.732 27.7411 269.233 27.1213 268.127 26.0181C267.021 24.9151 266.4 23.4188 266.4 21.8587C266.4 20.2986 267.021 18.8025 268.127 17.6993C269.233 16.5961 270.732 15.9764 272.296 15.9764C272.942 15.9459 273.587 16.0661 274.178 16.3275C274.77 16.589 275.292 16.9843 275.703 17.4823V16.3058L279.111 16.2352ZM275.703 21.8234C275.727 21.2606 275.581 20.7035 275.285 20.224C274.989 19.7445 274.555 19.3644 274.041 19.1325C273.526 18.9006 272.954 18.8277 272.397 18.923C271.841 19.0183 271.326 19.2774 270.918 19.6672C270.51 20.057 270.229 20.5595 270.11 21.1103C269.991 21.661 270.04 22.2345 270.25 22.7573C270.46 23.2801 270.822 23.7283 271.29 24.044C271.757 24.3598 272.309 24.5288 272.874 24.5293C273.242 24.5558 273.612 24.5048 273.959 24.3799C274.307 24.2548 274.624 24.0585 274.891 23.8034C275.158 23.5485 275.368 23.2405 275.508 22.8994C275.648 22.5584 275.714 22.1918 275.703 21.8234Z" fill="#010032"/>
<path d="M281.104 22.0588C281.104 20.8367 281.467 19.6421 282.148 18.6261C282.829 17.6101 283.796 16.8185 284.928 16.3514C286.06 15.8842 287.305 15.7626 288.506 16.0019C289.707 16.2412 290.81 16.8306 291.676 17.6955C292.541 18.5606 293.13 19.6622 293.367 20.8611C293.605 22.06 293.48 23.3022 293.01 24.4306C292.54 25.5591 291.744 26.5228 290.725 27.2001C289.705 27.8774 288.507 28.2376 287.282 28.2353C286.468 28.2432 285.66 28.0887 284.906 27.7809C284.152 27.4732 283.467 27.0184 282.892 26.4431C282.316 25.8678 281.862 25.1836 281.555 24.4308C281.248 23.678 281.095 22.8715 281.104 22.0588ZM289.971 22.0588C289.957 21.5311 289.787 21.0191 289.483 20.5871C289.179 20.1552 288.753 19.8224 288.26 19.6305C287.767 19.4386 287.229 19.3961 286.712 19.5085C286.195 19.6207 285.722 19.8828 285.354 20.2618C284.985 20.6407 284.737 21.1198 284.64 21.6388C284.544 22.1579 284.602 22.6939 284.81 23.1796C285.017 23.6655 285.363 24.0795 285.805 24.3699C286.247 24.6601 286.765 24.8139 287.294 24.8118C287.654 24.8188 288.012 24.7516 288.344 24.6145C288.677 24.4774 288.978 24.2733 289.228 24.0149C289.478 23.7566 289.672 23.4494 289.798 23.1129C289.924 22.7764 289.979 22.4175 289.959 22.0588H289.971Z" fill="#010032"/>
<path d="M295.1 13.1176C295.1 12.7035 295.223 12.2986 295.453 11.9542C295.684 11.6098 296.012 11.3414 296.395 11.1829C296.779 11.0244 297.201 10.983 297.608 11.0638C298.015 11.1446 298.389 11.344 298.683 11.6369C298.976 11.9298 299.176 12.3029 299.257 12.7091C299.338 13.1153 299.296 13.5364 299.137 13.9191C298.979 14.3016 298.71 14.6287 298.364 14.8588C298.019 15.0889 297.614 15.2118 297.198 15.2118C296.644 15.2056 296.113 14.9831 295.721 14.5916C295.329 14.2002 295.106 13.6712 295.1 13.1176ZM295.442 16.2353H298.979V27.8824H295.442V16.2353Z" fill="#010032"/>
<path d="M314.119 22.0588C314.158 22.8334 314.044 23.6082 313.783 24.3386C313.521 25.0689 313.117 25.7405 312.595 26.3145C312.072 26.8886 311.44 27.3538 310.737 27.6834C310.033 28.0131 309.271 28.2006 308.495 28.2353C307.836 28.2791 307.175 28.1738 306.563 27.9273C305.95 27.6807 305.401 27.2994 304.957 26.8118V32.5647H301.42V16.2353H304.957V17.3294C305.402 16.8432 305.951 16.4636 306.564 16.2192C307.176 15.9746 307.836 15.8715 308.495 15.9176C309.268 15.9524 310.027 16.1388 310.728 16.4662C311.429 16.7936 312.059 17.2558 312.581 17.826C313.104 18.3962 313.508 19.0635 313.772 19.7899C314.036 20.5161 314.154 21.2871 314.119 22.0588ZM310.582 22.0588C310.568 21.5124 310.392 20.9822 310.078 20.5348C309.763 20.0874 309.323 19.7425 308.813 19.5435C308.303 19.3445 307.745 19.3002 307.21 19.4161C306.674 19.532 306.185 19.8031 305.804 20.1952C305.422 20.5873 305.165 21.0831 305.064 21.6205C304.964 22.1578 305.025 22.7127 305.239 23.2158C305.453 23.7187 305.812 24.1474 306.269 24.4481C306.727 24.7488 307.263 24.908 307.811 24.9059C308.186 24.9218 308.56 24.8584 308.909 24.7198C309.258 24.5812 309.574 24.3706 309.835 24.1018C310.097 23.8329 310.299 23.5119 310.427 23.1599C310.556 22.8078 310.608 22.4326 310.582 22.0588Z" fill="#010032"/>
<path d="M324.885 24.3882C324.885 27.0706 322.527 28.2118 320.027 28.2118C319.007 28.3033 317.984 28.0876 317.088 27.5927C316.193 27.0978 315.467 26.3462 315.004 25.4353L318.046 23.7176C318.167 24.1374 318.428 24.5032 318.786 24.7538C319.145 25.0044 319.578 25.1245 320.015 25.0941C320.852 25.0941 321.277 24.8353 321.277 24.3647C321.277 23.0824 315.534 23.7647 315.534 19.7294C315.534 17.1882 317.68 15.9176 320.109 15.9176C321.033 15.8764 321.95 16.0854 322.764 16.5225C323.578 16.9595 324.258 17.6084 324.732 18.4L321.689 20C321.555 19.6965 321.335 19.4384 321.057 19.2567C320.779 19.0751 320.454 18.9778 320.121 18.9765C319.508 18.9765 319.143 19.2118 319.143 19.6235C319.143 20.9647 324.885 20.0824 324.885 24.3882Z" fill="#010032"/>
<path d="M337.702 16.2354V27.8825H334.164V26.7883C333.762 27.2727 333.252 27.6559 332.675 27.9073C332.097 28.1587 331.469 28.271 330.839 28.2354C328.481 28.2354 326.465 26.553 326.465 23.4119V16.2354H330.002V22.8825C329.974 23.1603 330.007 23.4409 330.099 23.7049C330.191 23.9688 330.338 24.2097 330.532 24.4112C330.726 24.6125 330.962 24.7694 331.223 24.8712C331.483 24.9728 331.763 25.0168 332.042 25.0001C333.315 25.0001 334.212 24.2472 334.212 22.6472V16.2354H337.702Z" fill="#010032"/>
<path d="M357.747 20.7294V27.8824H354.209V21.0353C354.209 19.8588 353.655 19.1294 352.535 19.1294C351.415 19.1294 350.707 19.9412 350.707 21.3176V27.8824H347.17V21.0353C347.17 19.8588 346.616 19.1294 345.496 19.1294C344.376 19.1294 343.668 19.9412 343.668 21.3176V27.8824H340.131V16.2353H343.668V17.3059C344.035 16.8329 344.512 16.4584 345.061 16.216C345.608 15.9736 346.208 15.8711 346.805 15.9176C347.402 15.8865 347.999 16.0112 348.534 16.2793C349.07 16.5474 349.526 16.9499 349.858 17.4471C350.248 16.9275 350.762 16.5148 351.354 16.2474C351.944 15.9799 352.595 15.8665 353.243 15.9176C356.002 15.9176 357.747 17.8235 357.747 20.7294Z" fill="#010032"/>
<path d="M360.717 16.1647C362.15 16.1647 363.311 15.0059 363.311 13.5765C363.311 12.1471 362.15 10.9882 360.717 10.9882C359.284 10.9882 358.123 12.1471 358.123 13.5765C358.123 15.0059 359.284 16.1647 360.717 16.1647Z" fill="#010032"/>
<path d="M465.944 28.8053C465.268 28.8422 464.6 28.6489 464.046 28.2567C463.815 28.0844 463.629 27.858 463.504 27.5972C463.38 27.3362 463.32 27.0488 463.33 26.7596V16.1653C463.325 16.1205 463.33 16.0749 463.344 16.0321C463.359 15.9894 463.383 15.9506 463.415 15.9186C463.447 15.8866 463.485 15.8624 463.528 15.8478C463.57 15.833 463.615 15.8284 463.66 15.8338H465.569C465.785 15.8338 465.887 15.9481 465.887 16.1653V25.9367C465.887 26.371 466.08 26.5881 466.478 26.5881C466.647 26.5951 466.815 26.5759 466.978 26.531C467.205 26.531 467.33 26.5996 467.342 26.8053L467.512 28.2338C467.52 28.2756 467.52 28.3184 467.51 28.3598C467.5 28.401 467.482 28.4399 467.456 28.4734C467.43 28.507 467.397 28.5346 467.36 28.5544C467.323 28.5742 467.282 28.5857 467.239 28.5881C466.821 28.7271 466.384 28.8004 465.944 28.8053Z" fill="#010032"/>
<path d="M476.681 27.5825C475.722 28.3797 474.516 28.8157 473.272 28.8157C472.028 28.8157 470.822 28.3797 469.863 27.5825C469.02 26.7265 468.547 25.5703 468.547 24.3654C468.547 23.1605 469.02 22.0042 469.863 21.1482C470.824 20.3552 472.029 19.9218 473.272 19.9218C474.515 19.9218 475.72 20.3552 476.681 21.1482C477.505 22.0121 477.965 23.1627 477.965 24.3597C477.965 25.5566 477.505 26.7072 476.681 27.5711V27.5825ZM471.658 26.0739C472.104 26.4795 472.683 26.7041 473.283 26.7041C473.884 26.7041 474.463 26.4795 474.908 26.0739C475.311 25.6081 475.533 25.0114 475.533 24.3939C475.533 23.7766 475.311 23.1799 474.908 22.7139C474.463 22.3085 473.884 22.0838 473.283 22.0838C472.683 22.0838 472.104 22.3085 471.658 22.7139C471.256 23.1799 471.034 23.7766 471.034 24.3939C471.034 25.0114 471.256 25.6081 471.658 26.0739Z" fill="#010032"/>
<path d="M488.477 20.2112C488.693 20.2112 488.795 20.3255 488.795 20.5426V28.7369C488.815 29.29 488.712 29.8406 488.494 30.3486C488.276 30.8567 487.948 31.3095 487.534 31.674C486.615 32.462 485.433 32.8704 484.227 32.8169C483.137 32.8554 482.062 32.5562 481.147 31.9598C480.757 31.7018 480.423 31.3657 480.167 30.9726C479.911 30.5793 479.738 30.1374 479.659 29.674C479.659 29.4455 479.659 29.3426 479.966 29.3426H481.875C481.956 29.3454 482.034 29.3718 482.101 29.4184C482.167 29.465 482.219 29.5299 482.25 29.6055C482.374 29.9526 482.62 30.2416 482.943 30.4169C483.336 30.6209 483.774 30.7231 484.216 30.714C484.482 30.7288 484.75 30.6898 485.001 30.5995C485.253 30.5094 485.484 30.3695 485.682 30.1883C485.862 29.9988 486.002 29.7745 486.094 29.529C486.186 29.2835 486.227 29.0218 486.216 28.7598V28.0398C485.532 28.5454 484.7 28.8068 483.852 28.7826C483.258 28.8043 482.667 28.7052 482.112 28.4912C481.557 28.277 481.052 27.9526 480.625 27.5369C479.806 26.6846 479.348 25.5454 479.348 24.3598C479.348 23.1743 479.806 22.0351 480.625 21.1826C481.054 20.7707 481.56 20.4494 482.114 20.2374C482.669 20.0254 483.259 19.9271 483.852 19.9483C484.725 19.9251 485.579 20.2035 486.272 20.7369V20.554C486.267 20.5103 486.272 20.4658 486.286 20.424C486.3 20.3823 486.323 20.3441 486.353 20.3123C486.384 20.2806 486.421 20.2561 486.462 20.2406C486.503 20.225 486.547 20.219 486.591 20.2226L488.477 20.2112ZM484.068 26.7483C484.361 26.7575 484.652 26.7018 484.921 26.5852C485.19 26.4688 485.43 26.2943 485.625 26.074C486.003 25.5834 486.208 24.9803 486.208 24.3598C486.208 23.7392 486.003 23.1362 485.625 22.6455C485.431 22.4283 485.192 22.2563 484.925 22.1418C484.658 22.0273 484.369 21.973 484.079 21.9826C483.783 21.9732 483.489 22.0287 483.216 22.1451C482.943 22.2616 482.699 22.4362 482.5 22.6569C482.081 23.1263 481.861 23.7412 481.886 24.3712C481.866 24.995 482.081 25.6034 482.488 26.074C482.688 26.2942 482.932 26.4684 483.205 26.5848C483.478 26.7011 483.772 26.7569 484.068 26.7483Z" fill="#010032"/>
<path d="M498.603 27.5824C497.642 28.3754 496.437 28.8088 495.194 28.8088C493.951 28.8088 492.746 28.3754 491.785 27.5824C490.96 26.7166 490.5 25.5641 490.5 24.3653C490.5 23.1665 490.96 22.014 491.785 21.1481C492.747 20.3572 493.951 19.925 495.194 19.925C496.436 19.925 497.641 20.3572 498.603 21.1481C499.427 22.012 499.886 23.1626 499.886 24.3596C499.886 25.5565 499.427 26.7071 498.603 27.571V27.5824ZM493.569 26.0738C493.787 26.2823 494.043 26.4452 494.324 26.553C494.605 26.6609 494.905 26.7118 495.205 26.7024C495.504 26.7102 495.801 26.6588 496.08 26.5509C496.359 26.443 496.614 26.2809 496.83 26.0738C497.227 25.6048 497.444 25.0094 497.444 24.3938C497.444 23.7783 497.227 23.1829 496.83 22.7138C496.614 22.5069 496.359 22.3447 496.08 22.2369C495.801 22.129 495.504 22.0775 495.205 22.0853C494.905 22.076 494.605 22.1268 494.324 22.2346C494.043 22.3425 493.787 22.5055 493.569 22.7138C493.173 23.1829 492.955 23.7783 492.955 24.3938C492.955 25.0094 493.173 25.6048 493.569 26.0738Z" fill="#010032"/>
<path d="M503.988 18.2681C503.688 18.5326 503.302 18.6783 502.903 18.6783C502.504 18.6783 502.118 18.5326 501.818 18.2681C501.682 18.1389 501.573 17.983 501.499 17.8101C501.425 17.6372 501.387 17.4508 501.387 17.2624C501.387 17.0741 501.425 16.8878 501.499 16.7148C501.573 16.5418 501.682 16.386 501.818 16.2567C502.122 15.9989 502.506 15.8575 502.903 15.8575C503.301 15.8575 503.685 15.9989 503.988 16.2567C504.125 16.386 504.233 16.5418 504.307 16.7148C504.382 16.8878 504.42 17.0741 504.42 17.2624C504.42 17.4508 504.382 17.6372 504.307 17.8101C504.233 17.983 504.125 18.1389 503.988 18.2681ZM504.227 28.8053C503.552 28.8386 502.884 28.6457 502.329 28.2567C502.102 28.0818 501.919 27.8546 501.796 27.5942C501.674 27.3337 501.615 27.0476 501.625 26.7596V20.5424C501.619 20.4976 501.624 20.452 501.639 20.4093C501.653 20.3665 501.677 20.3278 501.709 20.2958C501.741 20.2638 501.78 20.2396 501.822 20.2249C501.865 20.2102 501.91 20.2055 501.954 20.211H503.863C504.079 20.211 504.182 20.3253 504.182 20.5424V25.9367C504.182 26.371 504.375 26.5881 504.761 26.5881C504.934 26.5944 505.106 26.5751 505.273 26.531C505.5 26.531 505.625 26.5996 505.636 26.8053L505.807 28.2338C505.815 28.2756 505.814 28.3184 505.804 28.3598C505.795 28.401 505.776 28.4399 505.75 28.4734C505.725 28.507 505.692 28.5346 505.655 28.5544C505.617 28.5742 505.576 28.5857 505.534 28.5881C505.112 28.7279 504.671 28.8012 504.227 28.8053Z" fill="#010032"/>
<path d="M512.83 19.9368C513.426 19.9131 514.021 20.0102 514.579 20.2222C515.138 20.4343 515.648 20.7569 516.08 21.1711C516.883 22.0385 517.33 23.1799 517.33 24.3654C517.33 25.5509 516.883 26.6923 516.08 27.5597C515.65 27.9776 515.14 28.3034 514.582 28.5175C514.023 28.7317 513.427 28.8296 512.83 28.8054C511.979 28.8245 511.145 28.5637 510.455 28.0625V32.1882C510.455 32.4054 510.341 32.5082 510.125 32.5082H508.216C508.173 32.5165 508.128 32.5138 508.085 32.5007C508.043 32.4874 508.004 32.4641 507.973 32.4326C507.942 32.401 507.919 32.3624 507.905 32.3198C507.892 32.2773 507.89 32.2321 507.898 32.1882V22.8168C507.911 22.7251 507.903 22.6317 507.874 22.5437C507.845 22.4558 507.796 22.3758 507.731 22.3103C507.666 22.2448 507.587 22.1955 507.499 22.1664C507.412 22.1373 507.319 22.1291 507.227 22.1425H506.852C506.602 22.1425 506.477 22.0511 506.477 21.8682V20.5197C506.472 20.4362 506.494 20.3533 506.542 20.2847C506.589 20.216 506.659 20.1658 506.739 20.1425C507.132 19.9989 507.548 19.9291 507.966 19.9368C508.383 19.8997 508.802 19.9887 509.168 20.1922C509.534 20.3959 509.832 20.7049 510.023 21.0797C510.389 20.7073 510.827 20.4139 511.309 20.2174C511.792 20.0209 512.309 19.9254 512.83 19.9368ZM511.057 26.0739C511.26 26.287 511.503 26.4565 511.773 26.5722C512.042 26.688 512.332 26.7477 512.625 26.7477C512.918 26.7477 513.208 26.688 513.478 26.5722C513.747 26.4565 513.991 26.287 514.193 26.0739C514.62 25.5952 514.844 24.9679 514.818 24.3254C514.848 23.6824 514.623 23.0536 514.193 22.5768C513.991 22.3639 513.747 22.1944 513.478 22.0786C513.208 21.9627 512.918 21.9031 512.625 21.9031C512.332 21.9031 512.042 21.9627 511.773 22.0786C511.503 22.1944 511.26 22.3639 511.057 22.5768C510.644 23.0621 510.428 23.6869 510.455 24.3254C510.432 24.9634 510.647 25.5871 511.057 26.0739Z" fill="#010032"/>
<path d="M522.694 28.8053C521.674 28.8474 520.662 28.6021 519.773 28.0967C519.417 27.8807 519.113 27.5866 518.885 27.2365C518.657 26.8863 518.51 26.4889 518.455 26.0738C518.455 25.8453 518.535 25.731 518.785 25.731H520.455C520.535 25.7342 520.612 25.7592 520.678 25.8037C520.744 25.848 520.797 25.9098 520.83 25.9824C521.069 26.5996 521.694 26.9081 522.694 26.9081C523.043 26.9242 523.39 26.8535 523.705 26.7024C523.814 26.653 523.907 26.5749 523.975 26.4762C524.043 26.3776 524.083 26.2622 524.091 26.1424C524.091 25.8453 523.91 25.6396 523.546 25.5024C523.115 25.3581 522.669 25.2622 522.216 25.2167C521.681 25.1557 521.149 25.0602 520.626 24.931C520.116 24.8151 519.653 24.5484 519.296 24.1653C519.086 23.9049 518.931 23.6038 518.841 23.2807C518.751 22.9576 518.729 22.6193 518.775 22.2871C518.821 21.9548 518.934 21.6354 519.108 21.3492C519.281 21.0628 519.512 20.8154 519.785 20.6224C520.604 20.0977 521.565 19.8421 522.535 19.891C523.474 19.8591 524.403 20.0927 525.216 20.5653C525.544 20.7521 525.827 21.0101 526.043 21.3205C526.259 21.6309 526.404 21.9858 526.466 22.3596C526.466 22.5881 526.364 22.7024 526.16 22.7024H524.478C524.407 22.7066 524.337 22.6893 524.276 22.6526C524.215 22.6159 524.167 22.5615 524.137 22.4967C524.025 22.2261 523.813 22.0092 523.546 21.891C523.245 21.7326 522.908 21.6538 522.569 21.6624C522.236 21.6442 521.903 21.7111 521.603 21.8567C521.497 21.8978 521.406 21.9698 521.341 22.0636C521.276 22.1573 521.241 22.2684 521.239 22.3824C521.246 22.5388 521.303 22.6886 521.402 22.81C521.5 22.9313 521.634 23.0177 521.785 23.0567C522.221 23.2222 522.675 23.3372 523.137 23.3996C523.668 23.47 524.196 23.5692 524.716 23.6967C525.226 23.8127 525.689 24.0793 526.046 24.4624C526.237 24.6735 526.385 24.9205 526.48 25.1893C526.576 25.458 526.617 25.7431 526.603 26.0281C526.613 26.4232 526.52 26.8141 526.335 27.1626C526.15 27.5111 525.878 27.8054 525.546 28.0167C524.697 28.5649 523.702 28.8399 522.694 28.8053Z" fill="#010032"/>
<path d="M538.613 28.2339C538.62 28.2745 538.618 28.316 538.609 28.3559C538.599 28.3959 538.582 28.4334 538.557 28.4664C538.533 28.4994 538.502 28.5272 538.467 28.5481C538.432 28.569 538.393 28.5826 538.352 28.5882C537.937 28.7245 537.504 28.7977 537.068 28.8054C536.636 28.8504 536.2 28.7825 535.802 28.6083C535.403 28.4342 535.057 28.1595 534.795 27.8111C533.993 28.5051 532.954 28.8613 531.898 28.8054C531.407 28.8281 530.917 28.7473 530.459 28.5682C530.001 28.3891 529.585 28.1157 529.238 27.7654C528.894 27.3984 528.627 26.9653 528.453 26.492C528.28 26.0187 528.203 25.5151 528.227 25.0111V20.5425C528.227 20.3254 528.329 20.2111 528.545 20.2111H530.454C530.67 20.2111 530.772 20.3254 530.772 20.5425V24.6682C530.752 25.1823 530.926 25.6849 531.261 26.0739C531.428 26.2522 531.632 26.3923 531.857 26.485C532.082 26.5777 532.325 26.6207 532.568 26.6111C532.817 26.6221 533.066 26.5833 533.3 26.4969C533.534 26.4106 533.749 26.2785 533.932 26.1082C534.104 25.9288 534.24 25.7155 534.327 25.4816C534.416 25.2477 534.454 24.9981 534.443 24.7482V20.5425C534.443 20.3254 534.545 20.2111 534.761 20.2111H536.693C536.909 20.2111 537.011 20.3254 537.011 20.5425V25.9254C537.011 26.3711 537.204 26.5882 537.579 26.5882C537.755 26.5951 537.932 26.5759 538.102 26.5311C538.145 26.519 538.191 26.5168 538.234 26.5248C538.278 26.5327 538.319 26.5505 538.355 26.5769C538.392 26.6033 538.421 26.6376 538.443 26.6771C538.463 26.7167 538.475 26.7606 538.477 26.8054L538.613 28.2339Z" fill="#010032"/>
<path d="M556.67 28.2338C556.68 28.2748 556.682 28.3175 556.674 28.3589C556.665 28.4001 556.648 28.4392 556.623 28.473C556.598 28.5069 556.566 28.5348 556.528 28.5546C556.492 28.5746 556.451 28.5861 556.409 28.5881C555.986 28.7263 555.546 28.7996 555.102 28.8053C554.426 28.8404 553.759 28.6473 553.204 28.2567C552.965 28.0894 552.77 27.8653 552.637 27.6041C552.504 27.343 552.437 27.0528 552.443 26.7596V24.0738C552.467 23.5614 552.296 23.0589 551.966 22.6681C551.807 22.4895 551.609 22.3487 551.39 22.2558C551.169 22.163 550.932 22.1204 550.693 22.131C550.478 22.1229 550.265 22.1639 550.067 22.251C549.87 22.3381 549.696 22.469 549.557 22.6338C549.257 23.0168 549.103 23.4954 549.125 23.9824V28.1996C549.125 28.4167 549.023 28.531 548.807 28.531H546.886C546.842 28.5366 546.796 28.5318 546.754 28.5172C546.711 28.5024 546.673 28.4782 546.641 28.4462C546.609 28.4143 546.585 28.3754 546.57 28.3327C546.555 28.29 546.551 28.2445 546.557 28.1996V24.0738C546.582 23.567 546.424 23.068 546.113 22.6681C545.975 22.5001 545.801 22.3649 545.604 22.2721C545.409 22.1793 545.194 22.1311 544.977 22.131C544.745 22.1216 544.515 22.1615 544.299 22.2482C544.083 22.3349 543.888 22.4663 543.727 22.6338C543.402 23.0046 543.235 23.4889 543.261 23.9824V28.1996C543.267 28.2445 543.262 28.29 543.248 28.3327C543.233 28.3754 543.209 28.4143 543.177 28.4462C543.145 28.4782 543.107 28.5024 543.065 28.5172C543.021 28.5318 542.976 28.5366 542.932 28.531H541.079C540.863 28.531 540.761 28.4167 540.761 28.1996V22.8167C540.775 22.725 540.767 22.6316 540.737 22.5436C540.709 22.4557 540.66 22.3757 540.594 22.3102C540.529 22.2447 540.45 22.1954 540.362 22.1663C540.275 22.1372 540.182 22.129 540.091 22.1424H539.716C539.466 22.1424 539.341 22.051 539.341 21.8681V20.5196C539.335 20.4361 539.358 20.3532 539.405 20.2846C539.453 20.2159 539.523 20.1657 539.602 20.1424C539.995 19.9988 540.411 19.929 540.829 19.9367C541.23 19.9023 541.634 19.9828 541.992 20.1688C542.35 20.3549 542.648 20.6389 542.852 20.9881C543.235 20.6228 543.69 20.3407 544.186 20.1598C544.683 19.9789 545.211 19.903 545.738 19.9367C546.251 19.9116 546.761 20.0081 547.229 20.2186C547.698 20.4292 548.109 20.7476 548.432 21.1481C548.808 20.737 549.27 20.4152 549.785 20.2056C550.3 19.9961 550.854 19.9044 551.409 19.9367C551.904 19.9134 552.4 19.9937 552.863 20.1728C553.327 20.3518 553.749 20.6255 554.102 20.9767C554.448 21.343 554.715 21.776 554.888 22.2495C555.062 22.7229 555.14 23.227 555.113 23.731V25.9367C555.113 26.371 555.307 26.5881 555.67 26.5881C555.846 26.5964 556.023 26.5772 556.193 26.531C556.428 26.531 556.553 26.6224 556.568 26.8053L556.67 28.2338Z" fill="#010032"/>
<path d="M423.421 18.7254C424.259 15.3365 426.201 12.327 428.937 10.1763C431.673 8.02557 435.045 6.85718 438.518 6.85718C441.99 6.85718 445.363 8.02557 448.098 10.1763C450.834 12.327 452.776 15.3365 453.614 18.7254H452.25C449.95 18.6913 447.697 19.3827 445.807 20.7025C445.698 20.7819 445.584 20.8545 445.466 20.9197H445.307C445.189 20.8545 445.075 20.7819 444.966 20.7025C443.06 19.4133 440.815 18.7247 438.518 18.7247C436.22 18.7247 433.975 19.4133 432.069 20.7025C431.96 20.7819 431.846 20.8545 431.728 20.9197H431.569C431.451 20.8545 431.337 20.7819 431.228 20.7025C429.338 19.3827 427.085 18.6913 424.785 18.7254H423.421ZM449.796 25.8911C450.496 25.3429 451.364 25.056 452.25 25.0797H454.08V21.4111H452.25C450.688 21.3921 449.162 21.8811 447.898 22.8054C447.187 23.3326 446.327 23.617 445.444 23.617C444.56 23.617 443.7 23.3326 442.989 22.8054C441.694 21.8984 440.153 21.4121 438.574 21.4121C436.996 21.4121 435.455 21.8984 434.16 22.8054C433.449 23.3326 432.588 23.617 431.705 23.617C430.822 23.617 429.962 23.3326 429.25 22.8054C427.971 21.8693 426.423 21.3797 424.841 21.4111H422.955V25.0797H424.785C425.672 25.056 426.539 25.3429 427.239 25.8911C428.532 26.7987 430.071 27.2854 431.648 27.2854C433.225 27.2854 434.764 26.7987 436.057 25.8911C436.758 25.3446 437.625 25.0579 438.512 25.0797C439.399 25.0541 440.267 25.3411 440.966 25.8911C442.262 26.7982 443.803 27.2843 445.381 27.2843C446.96 27.2843 448.5 26.7982 449.796 25.8911ZM449.796 32.4511C450.496 31.9029 451.364 31.616 452.25 31.6397H454.08V27.9711H452.25C450.688 27.9521 449.162 28.4411 447.898 29.3654C447.187 29.8926 446.327 30.177 445.444 30.177C444.56 30.177 443.7 29.8926 442.989 29.3654C441.694 28.4584 440.153 27.9722 438.574 27.9722C436.996 27.9722 435.455 28.4584 434.16 29.3654C433.449 29.8926 432.588 30.177 431.705 30.177C430.822 30.177 429.962 29.8926 429.25 29.3654C427.971 28.4294 426.423 27.9397 424.841 27.9711H422.955V31.6397H424.785C425.672 31.616 426.539 31.9029 427.239 32.4511C428.532 33.3587 430.071 33.8454 431.648 33.8454C433.225 33.8454 434.764 33.3587 436.057 32.4511C436.758 31.9046 437.625 31.6179 438.512 31.6397C439.399 31.6141 440.267 31.9011 440.966 32.4511C442.262 33.3582 443.803 33.8443 445.381 33.8443C446.96 33.8443 448.5 33.3582 449.796 32.4511Z" fill="#010032"/>
<path d="M649.903 18.0452C649.448 18.5027 649.1 19.055 648.883 19.6624C648.666 20.27 648.586 20.9179 648.648 21.5599L648.626 21.5383C648.69 22.2943 648.588 23.0548 648.328 23.7673C648.067 24.4795 647.654 25.1265 647.118 25.6629C646.582 26.1992 645.935 26.6121 645.222 26.8725C644.51 27.133 643.749 27.235 642.994 27.1712L643.015 27.1928C642.111 27.1086 641.203 27.3054 640.415 27.7562C639.627 28.207 638.997 28.8899 638.611 29.712C638.225 30.5339 638.102 31.4548 638.259 32.3493C638.416 33.2437 638.844 34.068 639.487 34.7097C640.129 35.3515 640.954 35.7795 641.848 35.9354C642.743 36.0913 643.664 35.9675 644.485 35.581C645.307 35.1944 645.989 34.5639 646.439 33.7753C646.889 32.9866 647.085 32.0784 647 31.1744L647.023 31.196C646.959 30.4402 647.061 29.6796 647.322 28.9671C647.582 28.2548 647.995 27.6079 648.531 27.0715C649.068 26.5351 649.715 26.1222 650.427 25.8619C651.14 25.6013 651.9 25.4993 652.656 25.5631L652.633 25.5415C653.372 25.608 654.115 25.4868 654.794 25.1895C655.474 24.8921 656.067 24.4281 656.519 23.8405C656.971 23.2528 657.268 22.5604 657.381 21.8277C657.495 21.0948 657.421 20.3453 657.168 19.6483C656.914 18.9516 656.489 18.3299 655.931 17.8411C655.374 17.3524 654.702 17.0123 653.978 16.8525C653.253 16.6927 652.501 16.7181 651.789 16.9266C651.077 17.1351 650.43 17.5198 649.907 18.0452H649.903Z" fill="#010032"/>
<path d="M641.05 24.3631L641.027 24.3415C641.669 24.4063 642.318 24.3274 642.927 24.1107C643.535 23.894 644.087 23.5449 644.544 23.0885C645 22.6322 645.35 22.0799 645.567 21.4719C645.784 20.8639 645.864 20.2152 645.799 19.5727L645.822 19.5943C645.758 18.8385 645.86 18.0779 646.121 17.3655C646.381 16.6531 646.794 16.0062 647.331 15.4698C647.867 14.9336 648.514 14.5207 649.226 14.2602C649.939 13.9996 650.699 13.8978 651.455 13.9616L651.432 13.94C652.336 14.0249 653.245 13.8287 654.033 13.3785C654.822 12.9282 655.453 12.2455 655.839 11.4237C656.226 10.6018 656.349 9.6808 656.193 8.78619C656.036 7.89157 655.608 7.06695 654.966 6.42479C654.324 5.78264 653.499 5.35418 652.604 5.19792C651.71 5.04165 650.789 5.16514 649.967 5.55156C649.145 5.93798 648.463 6.56852 648.012 7.35717C647.562 8.1458 647.366 9.05417 647.451 9.95835L647.429 9.93554C647.493 10.6914 647.391 11.4521 647.131 12.1646C646.871 12.8771 646.458 13.5241 645.921 14.0606C645.385 14.5968 644.738 15.0097 644.025 15.2702C643.313 15.5305 642.552 15.6323 641.796 15.5683L641.818 15.5911C641.176 15.5265 640.527 15.6053 639.919 15.8221C639.31 16.0386 638.758 16.3878 638.301 16.8442C637.844 17.3006 637.495 17.8528 637.278 18.4609C637.061 19.0689 636.981 19.7174 637.046 20.3599L637.024 20.3383C637.088 21.0941 636.985 21.8547 636.725 22.567C636.464 23.2792 636.051 23.9261 635.515 24.4624C634.979 24.9986 634.332 25.4115 633.62 25.6721C632.907 25.9327 632.147 26.0347 631.391 25.9712L631.413 25.9928C630.509 25.9078 629.6 26.1038 628.812 26.5542C628.023 27.0046 627.392 27.6871 627.006 28.509C626.619 29.3309 626.496 30.2519 626.652 31.1465C626.809 32.0411 627.237 32.8657 627.879 33.5079C628.521 34.1501 629.346 34.5785 630.241 34.7347C631.135 34.891 632.056 34.7675 632.878 34.3811C633.7 33.9947 634.383 33.3642 634.833 32.5756C635.283 31.7868 635.479 30.8785 635.394 29.9744L635.417 29.996C635.353 29.2401 635.455 28.4795 635.716 27.767C635.976 27.0548 636.389 26.4079 636.925 25.8715C637.462 25.3351 638.109 24.9222 638.821 24.6619C639.533 24.4013 640.294 24.2993 641.05 24.3631Z" fill="#010032"/>
<path d="M633.008 21.9548C633.463 21.4973 633.811 20.945 634.028 20.3375C634.244 19.7299 634.324 19.082 634.262 18.44L634.285 18.4616C634.221 17.7056 634.323 16.9446 634.583 16.2321C634.844 15.5195 635.257 14.8725 635.794 14.3361C636.33 13.7997 636.978 13.3869 637.69 13.1266C638.403 12.8662 639.164 12.7646 639.92 12.8287L639.897 12.8072C640.801 12.8918 641.709 12.6956 642.497 12.2454C643.285 11.7951 643.916 11.1126 644.302 10.291C644.688 9.46944 644.811 8.54874 644.655 7.65446C644.499 6.76018 644.07 5.93588 643.429 5.29395C642.787 4.65202 641.962 4.22371 641.068 4.06746C640.174 3.91118 639.253 4.03456 638.432 4.42074C637.61 4.80693 636.927 5.43714 636.477 6.22541C636.027 7.0137 635.831 7.92169 635.915 8.82555L635.894 8.80395C635.958 9.55977 635.856 10.3204 635.595 11.0328C635.335 11.7452 634.922 12.3921 634.385 12.9285C633.849 13.4648 633.202 13.8776 632.49 14.1381C631.777 14.3986 631.017 14.5006 630.261 14.4368L630.283 14.4584C629.544 14.3921 628.801 14.5135 628.122 14.8109C627.442 15.1084 626.849 15.5726 626.397 16.1603C625.945 16.748 625.649 17.4404 625.536 18.173C625.422 18.9059 625.496 19.6554 625.749 20.3521C626.003 21.049 626.428 21.6704 626.986 22.1591C627.544 22.6478 628.216 22.9879 628.94 23.1477C629.664 23.3074 630.416 23.2818 631.128 23.0734C631.839 22.8648 632.487 22.4801 633.01 21.9548H633.008Z" fill="#010032"/>
<path d="M670.181 9.98596H673.745V27.3296H670.181V9.98596Z" fill="#010032"/>
<path d="M675.763 21.3908C675.758 20.1445 676.123 18.9246 676.812 17.8858C677.501 16.8471 678.482 16.0361 679.632 15.5558C680.782 15.0753 682.049 14.947 683.272 15.1872C684.495 15.4273 685.62 16.0249 686.503 16.9045C687.386 17.7839 687.988 18.9059 688.233 20.1279C688.478 21.35 688.355 22.6173 687.879 23.7693C687.403 24.9212 686.596 25.9062 685.56 26.5991C684.524 27.2921 683.306 27.662 682.059 27.662C681.232 27.6715 680.411 27.5158 679.645 27.2043C678.878 26.8928 678.181 26.4317 677.595 25.8478C677.009 25.2639 676.545 24.569 676.23 23.8038C675.916 23.0385 675.757 22.2182 675.763 21.3908ZM684.792 21.3908C684.777 20.8536 684.604 20.3326 684.295 19.8931C683.985 19.4536 683.553 19.115 683.053 18.9197C682.552 18.7244 682.005 18.681 681.48 18.795C680.954 18.9089 680.474 19.1752 680.1 19.5604C679.725 19.9456 679.472 20.4328 679.373 20.9611C679.273 21.4892 679.332 22.035 679.541 22.5301C679.75 23.0252 680.101 23.4476 680.548 23.7446C680.996 24.0416 681.522 24.2 682.059 24.2C682.427 24.2098 682.794 24.1432 683.135 24.0046C683.476 23.8658 683.784 23.658 684.041 23.3941C684.298 23.1301 684.497 22.8158 684.626 22.471C684.755 22.1263 684.812 21.7585 684.792 21.3908Z" fill="#010032"/>
<path d="M702.561 15.4508V26.7309C702.561 30.722 699.448 32.4093 696.288 32.4093C695.176 32.4925 694.062 32.2678 693.069 31.7598C692.075 31.2518 691.241 30.48 690.658 29.5293L693.699 27.7713C693.944 28.2668 694.335 28.6757 694.819 28.9432C695.303 29.2106 695.857 29.3238 696.407 29.2676C696.759 29.3164 697.117 29.2854 697.455 29.1771C697.793 29.0687 698.102 28.8857 698.36 28.6418C698.617 28.3977 698.817 28.0989 698.944 27.7671C699.07 27.4356 699.121 27.0798 699.091 26.726V25.6401C698.674 26.1507 698.143 26.5564 697.54 26.8246C696.938 27.0928 696.281 27.216 695.622 27.1845C694.055 27.135 692.568 26.4776 691.477 25.3514C690.385 24.2251 689.775 22.7184 689.775 21.1503C689.775 19.5821 690.385 18.0754 691.477 16.9491C692.568 15.8229 694.055 15.1655 695.622 15.116C696.281 15.0845 696.938 15.2077 697.54 15.4759C698.143 15.7441 698.674 16.1499 699.091 16.6604V15.4485L702.561 15.4508ZM699.092 21.1521C699.117 20.5778 698.968 20.0093 698.666 19.5201C698.364 19.0307 697.923 18.6429 697.399 18.4067C696.875 18.1703 696.292 18.0963 695.726 18.1939C695.159 18.2916 694.635 18.5565 694.22 18.9549C693.806 19.353 693.52 19.8661 693.399 20.4282C693.279 20.9903 693.329 21.5757 693.544 22.1088C693.759 22.642 694.128 23.0987 694.605 23.4201C695.082 23.7414 695.644 23.9128 696.219 23.9121C696.593 23.9382 696.969 23.8856 697.322 23.7577C697.675 23.6298 697.997 23.4293 698.268 23.1694C698.538 22.9093 698.752 22.5956 698.894 22.248C699.036 21.9006 699.104 21.5273 699.092 21.1521Z" fill="#010032"/>
<path d="M704.578 21.3908C704.573 20.1445 704.938 18.9246 705.627 17.8858C706.316 16.8471 707.297 16.0361 708.447 15.5558C709.598 15.0753 710.864 14.947 712.087 15.1872C713.31 15.4273 714.435 16.0249 715.318 16.9045C716.201 17.7839 716.803 18.9059 717.048 20.1279C717.293 21.35 717.169 22.6173 716.694 23.7693C716.218 24.9212 715.411 25.9062 714.375 26.5991C713.339 27.2921 712.121 27.662 710.874 27.662C710.047 27.6715 709.226 27.5158 708.46 27.2043C707.693 26.8928 706.996 26.4317 706.41 25.8478C705.824 25.2639 705.36 24.569 705.045 23.8038C704.731 23.0385 704.572 22.2182 704.578 21.3908ZM713.607 21.3908C713.592 20.8536 713.419 20.3326 713.11 19.8931C712.8 19.4536 712.368 19.115 711.868 18.9197C711.367 18.7244 710.82 18.681 710.295 18.795C709.77 18.9089 709.29 19.1752 708.915 19.5604C708.54 19.9456 708.287 20.4328 708.188 20.9611C708.088 21.4892 708.147 22.035 708.356 22.5301C708.565 23.0252 708.916 23.4476 709.364 23.7446C709.812 24.0416 710.337 24.2 710.874 24.2C711.243 24.2098 711.609 24.1432 711.95 24.0046C712.291 23.8658 712.6 23.658 712.856 23.3941C713.113 23.1301 713.312 22.8158 713.441 22.471C713.57 22.1263 713.627 21.7585 713.607 21.3908Z" fill="#010032"/>
<path d="M718.834 12.2672C718.834 11.8443 718.959 11.4308 719.194 11.0792C719.429 10.7275 719.764 10.4534 720.154 10.2916C720.545 10.1297 720.975 10.0874 721.389 10.1699C721.804 10.2524 722.185 10.4561 722.484 10.7551C722.783 11.0542 722.987 11.4352 723.069 11.85C723.152 12.2648 723.11 12.6948 722.947 13.0856C722.786 13.4762 722.512 13.8102 722.16 14.0452C721.808 14.2802 721.395 14.4056 720.972 14.4056C720.407 14.3999 719.866 14.1729 719.466 13.7731C719.066 13.3732 718.84 12.8326 718.834 12.2672ZM719.194 15.4508H722.759V27.3308H719.189L719.194 15.4508Z" fill="#010032"/>
<path d="M738.148 21.3908C738.188 22.176 738.075 22.9615 737.811 23.7023C737.547 24.4431 737.14 25.1244 736.612 25.7072C736.085 26.29 735.447 26.7627 734.735 27.0982C734.025 27.4337 733.254 27.6253 732.469 27.662C731.809 27.698 731.149 27.5867 730.536 27.336C729.924 27.0852 729.376 26.7014 728.93 26.2125V32.0816H725.366V15.4508H728.93V16.5668C729.376 16.0782 729.925 15.6947 730.536 15.4442C731.149 15.1937 731.809 15.0824 732.469 15.1184C733.254 15.1551 734.025 15.3466 734.736 15.6821C735.447 16.0176 736.086 16.4904 736.613 17.0733C737.141 17.6563 737.548 18.3379 737.812 19.0789C738.075 19.8198 738.189 20.6056 738.148 21.3908ZM734.584 21.3908C734.569 20.8349 734.392 20.2953 734.072 19.8397C733.754 19.3842 733.307 19.0328 732.79 18.8298C732.272 18.6266 731.706 18.5806 731.162 18.6978C730.618 18.8148 730.122 19.0896 729.733 19.4878C729.345 19.886 729.082 20.3898 728.979 20.9364C728.876 21.4829 728.936 22.0476 729.152 22.5601C729.368 23.0726 729.731 23.5099 730.194 23.8175C730.657 24.1249 731.201 24.289 731.757 24.2888C732.14 24.3059 732.521 24.2419 732.876 24.1012C733.232 23.9608 733.553 23.7466 733.82 23.473C734.087 23.1993 734.293 22.8724 734.424 22.5136C734.556 22.1547 734.61 21.772 734.584 21.3908Z" fill="#010032"/>
<path d="M749.145 23.7657C749.145 26.4981 746.77 27.662 744.205 27.662C743.168 27.7559 742.127 27.5367 741.216 27.0326C740.306 26.5287 739.568 25.763 739.096 24.8349L742.184 23.0769C742.309 23.5058 742.577 23.8791 742.944 24.1342C743.311 24.3893 743.755 24.5109 744.2 24.4785C745.055 24.4785 745.483 24.2168 745.483 23.7429C745.483 22.4348 739.637 23.1249 739.637 19.0148C739.637 16.4241 741.824 15.1185 744.295 15.1185C745.224 15.089 746.143 15.3093 746.958 15.7564C747.773 16.2035 748.453 16.8609 748.927 17.6601L745.886 19.2992C745.753 18.9881 745.531 18.723 745.247 18.5371C744.964 18.3513 744.633 18.2529 744.295 18.2541C743.676 18.2541 743.296 18.4941 743.296 18.9189C743.301 20.2737 749.145 19.3701 749.145 23.7657Z" fill="#010032"/>
<path d="M762.165 15.4508V27.3308H758.6V26.2136C758.189 26.7066 757.666 27.095 757.076 27.347C756.486 27.599 755.845 27.7074 755.204 27.6633C752.804 27.6633 750.764 25.9533 750.764 22.7432V15.4508H754.328V22.2212C754.298 22.5042 754.331 22.7903 754.423 23.0594C754.514 23.3287 754.664 23.5747 754.861 23.7803C755.058 23.9859 755.296 24.1461 755.562 24.2498C755.826 24.3536 756.11 24.3985 756.395 24.3812C757.702 24.3812 758.604 23.6216 758.604 21.9344V15.4544L762.165 15.4508Z" fill="#010032"/>
<path d="M782.601 20.0361V27.3297H779.037V20.3445C779.037 19.1565 778.467 18.3969 777.327 18.3969C776.138 18.3969 775.473 19.2285 775.473 20.6301V27.3297H771.909V20.3445C771.909 19.1565 771.34 18.3969 770.199 18.3969C769.011 18.3969 768.346 19.2285 768.346 20.6301V27.3297H764.782V15.4497H768.346V16.5416C768.716 16.0572 769.2 15.6729 769.756 15.4242C770.313 15.1753 770.922 15.0699 771.529 15.1173C772.139 15.0874 772.746 15.2161 773.292 15.4908C773.837 15.7654 774.301 16.1768 774.641 16.6845C775.036 16.1532 775.559 15.7308 776.162 15.4568C776.763 15.1826 777.426 15.0659 778.087 15.1173C780.813 15.1185 782.601 17.0661 782.601 20.0361Z" fill="#010032"/>
<path d="M785.615 15.3776C787.075 15.3776 788.26 14.1935 788.26 12.7328C788.26 11.2721 787.075 10.088 785.615 10.088C784.154 10.088 782.969 11.2721 782.969 12.7328C782.969 14.1935 784.154 15.3776 785.615 15.3776Z" fill="#010032"/>
</svg>
